<?xml version="1.0" standalone="no"?>
<!DOCTYPE svg PUBLIC "-//W3C//DTD SVG 20010904//EN"
 "http://www.w3.org/TR/2001/REC-SVG-20010904/DTD/svg10.dtd">
<svg version="1.0" xmlns="http://www.w3.org/2000/svg"
 width="599.000000pt" height="750.000000pt" viewBox="0 0 599.000000 750.000000"
 preserveAspectRatio="xMidYMid meet">

<g transform="translate(0.000000,750.000000) scale(0.100000,-0.100000)"
fill="#000000" stroke="none">
<path d="M2917 7380 c-481 -683 -1212 -1157 -2025 -1314 -223 -43 -314 -51
-592 -51 l-265 0 -7 -55 c-3 -30 -10 -199 -14 -375 -39 -1748 504 -3205 1661
-4454 333 -360 828 -785 1252 -1075 l71 -48 143 103 c388 277 696 537 1009
849 782 780 1305 1655 1590 2657 111 389 177 763 222 1248 15 158 18 952 5
1075 l-8 75 -217 -3 c-516 -7 -965 93 -1437 322 -506 245 -932 611 -1246 1069
-33 48 -61 87 -62 87 -1 0 -37 -50 -80 -110z m168 -365 c110 -132 328 -344
465 -454 599 -477 1288 -736 2044 -767 l163 -7 7 -186 c7 -206 -6 -583 -29
-821 -57 -583 -189 -1134 -396 -1655 -78 -196 -279 -603 -389 -785 -388 -645
-894 -1216 -1565 -1765 -143 -117 -378 -295 -390 -295 -16 0 -316 231 -495
381 -1261 1054 -1989 2310 -2205 3802 -47 329 -57 463 -62 903 l-5 421 163 6
c789 32 1500 310 2119 828 127 106 333 314 424 427 32 39 59 72 61 72 1 0 41
-47 90 -105z"/>
<path d="M2875 6723 c-606 -634 -1458 -1035 -2343 -1101 -62 -5 -115 -12 -118
-15 -10 -9 -5 -474 6 -630 61 -846 261 -1580 616 -2265 361 -698 887 -1338
1564 -1904 159 -133 383 -308 395 -308 4 0 55 37 113 82 911 700 1592 1531
1987 2422 329 745 493 1563 495 2474 0 122 0 123 -26 132 -14 6 -46 10 -72 10
-82 0 -312 30 -467 61 -324 64 -621 166 -920 315 -359 180 -642 383 -940 677
-93 92 -172 166 -175 166 -3 -1 -54 -53 -115 -116z m430 -470 c231 -186 493
-351 768 -483 390 -187 765 -293 1251 -355 l49 -7 -6 -191 c-26 -745 -177
-1441 -451 -2079 l-16 -38 -150 0 -150 0 0 125 0 125 -92 0 -93 1 44 22 c53
26 86 66 77 94 -6 17 -19 21 -96 26 -181 13 -280 49 -432 159 -61 44 -120 90
-130 102 -77 90 -220 288 -352 488 -86 130 -171 253 -190 273 l-34 36 35 77
c88 191 126 351 126 528 l0 122 73 21 c40 11 75 21 78 21 3 0 8 -27 12 -60 l7
-60 46 43 c69 64 126 101 275 175 l135 67 -184 -3 c-165 -4 -326 7 -372 25
-10 4 -2 -14 21 -48 20 -29 36 -59 36 -65 0 -9 -104 -45 -138 -49 -2 0 -18 39
-36 86 -54 145 -142 271 -297 430 -114 116 -150 228 -113 348 7 22 5 23 -22
17 -43 -11 -93 -53 -112 -94 -28 -60 -691 -997 -708 -1000 -9 -2 -27 6 -40 19
l-24 22 30 19 c33 20 38 39 15 58 -8 7 -15 19 -15 26 0 8 -4 14 -8 14 -13 0
-12 32 1 58 10 22 7 28 -31 63 -23 22 -42 43 -42 46 0 3 -12 22 -27 41 -26 34
-26 36 -10 64 15 27 15 28 -3 28 -11 0 -20 4 -20 10 0 24 -61 40 -153 40 -123
0 -199 -15 -270 -52 -68 -37 -107 -78 -146 -156 -45 -90 -56 -152 -55 -302 1
-166 10 -212 44 -221 24 -7 24 -7 -4 -8 -45 -2 -114 -39 -168 -91 -43 -41 -48
-51 -48 -89 0 -93 28 -104 264 -100 l173 3 62 -54 c117 -102 191 -223 211
-343 4 -27 12 -53 19 -60 7 -7 11 -58 11 -147 l0 -136 67 -29 c66 -29 153
-100 153 -125 0 -7 -31 -43 -70 -80 -61 -58 -70 -72 -70 -102 0 -21 10 -50 25
-72 14 -20 25 -48 25 -62 0 -14 5 -34 10 -45 10 -19 4 -19 -350 -19 l-360 0 0
-125 0 -126 -137 3 -137 3 -59 145 c-187 462 -314 982 -372 1520 -16 157 -35
452 -35 567 l0 72 47 6 c144 18 332 50 433 72 659 146 1309 490 1805 956 l90
84 90 -85 c49 -46 149 -132 220 -189z m-370 -276 c8 -13 18 -39 21 -58 5 -22
31 -61 77 -114 132 -149 186 -257 190 -374 l2 -66 -40 -6 c-22 -3 -78 -25
-125 -49 -78 -39 -97 -45 -230 -62 -80 -10 -201 -34 -270 -53 -154 -42 -300
-69 -311 -58 -6 6 542 807 602 879 14 17 62 -5 84 -39z m-1059 -461 c-62 -36
-112 -75 -130 -99 -20 -27 -21 -39 -18 -208 l4 -179 -36 0 -36 0 0 158 c0 86
5 175 11 197 15 55 74 108 146 133 58 19 93 18 59 -2z m1411 -581 c-5 -164
-17 -226 -58 -307 -18 -36 -22 -38 -67 -38 -27 0 -74 -5 -105 -10 l-57 -11
-332 154 c-183 85 -334 161 -336 169 -2 10 17 17 70 26 110 19 325 75 493 128
107 34 164 47 197 46 31 -2 61 4 85 16 34 18 39 18 76 3 l39 -16 -5 -160z
m-639 -247 c169 -77 309 -142 311 -144 7 -6 -226 -113 -312 -143 -121 -42
-141 -41 -192 12 -46 49 -78 110 -101 195 -17 65 -31 222 -19 222 4 0 145 -64
313 -142z m129 -492 c-12 -35 -36 -26 -177 64 -80 51 -152 99 -160 107 -8 8
65 -25 163 -74 97 -48 176 -92 174 -97z m-237 37 l170 -106 -21 -23 -21 -23
-72 53 c-39 28 -113 83 -164 120 -67 50 -90 71 -80 77 7 5 14 9 16 9 1 0 79
-48 172 -107z m-94 -58 c81 -66 155 -125 163 -132 14 -10 14 -13 -3 -32 -32
-35 -123 -91 -184 -112 -77 -28 -202 -30 -255 -4 -21 10 -45 31 -53 47 -20 39
-106 260 -102 263 2 2 37 12 78 24 41 11 102 32 135 45 33 13 63 23 67 23 4
-1 73 -56 154 -122z m-410 -133 c31 -78 54 -145 51 -148 -3 -4 -31 -3 -62 1
l-55 6 0 146 c0 81 2 144 4 142 2 -2 30 -68 62 -147z m827 122 c18 -9 34 -18
36 -20 2 -1 -7 -17 -19 -34 l-22 -30 -40 31 -40 32 23 18 c29 23 24 22 62 3z
m337 -76 c62 -98 261 -296 402 -401 138 -103 148 -117 182 -269 3 -15 16 -37
28 -48 l22 -20 -400 1 c-391 0 -398 0 -356 18 129 52 173 150 117 260 -26 52
-147 236 -188 286 l-25 29 52 61 c28 34 65 82 81 108 17 26 32 47 35 46 3 0
25 -32 50 -71z m-416 -9 c41 -24 42 -26 19 -51 -21 -23 -27 -23 -63 3 -28 21
-28 23 -12 45 9 13 18 24 19 24 1 0 18 -9 37 -21z m-89 -109 l29 -30 -24 -25
c-22 -24 -24 -24 -43 -8 -34 32 -40 53 -21 74 22 25 25 24 59 -11z m-127 -152
c-18 -9 -38 -17 -45 -18 -11 0 -59 68 -52 74 2 2 18 11 34 19 30 16 30 16 63
-20 l33 -37 -33 -18z m-184 -5 c14 -20 24 -38 23 -39 -1 0 -14 -4 -29 -8 -24
-6 -30 -2 -48 33 -21 41 -20 43 22 50 4 0 19 -16 32 -36z m-151 -10 c8 -21 14
-38 13 -39 0 -1 -13 -4 -27 -7 -22 -6 -28 -2 -42 29 -23 47 -22 54 12 54 24 0
31 -6 44 -37z m310 -327 c146 -76 183 -91 277 -112 49 -11 24 -12 -207 -13
-226 -1 -262 1 -257 14 4 8 -10 29 -35 53 -48 45 -54 83 -18 113 42 35 86 25
240 -55z m1564 -123 c-20 -2 -52 -2 -70 0 -17 2 0 4 38 4 39 0 53 -2 32 -4z
m343 -203 l0 -50 -1470 0 -1470 0 0 50 0 50 1470 0 1470 0 0 -50z m360 -232
c0 -16 -113 -229 -195 -368 -354 -598 -865 -1172 -1503 -1688 -89 -72 -117
-90 -130 -83 -25 14 -250 199 -382 315 -155 135 -482 463 -611 611 -220 253
-417 519 -576 779 -89 146 -233 414 -233 434 0 9 443 12 1815 12 1376 0 1815
-3 1815 -12z"/>
<path d="M1350 2824 c0 -3 36 -70 81 -147 202 -353 478 -727 737 -997 l91 -95
1 623 0 622 -70 0 -70 0 0 -442 -1 -443 -24 30 -25 30 0 413 0 412 -70 0 -70
0 0 -322 -1 -323 -25 30 c-61 74 -312 448 -314 468 0 4 65 7 145 7 l145 0 0
70 0 70 -265 0 c-146 0 -265 -3 -265 -6z"/>
<path d="M2310 2325 l0 -504 62 -3 63 -3 35 -52 35 -52 63 -1 62 0 0 130 0
130 -90 0 -90 0 0 430 0 430 -70 0 -70 0 0 -505z"/>
<path d="M2850 2355 l0 -475 -65 0 -65 0 0 -270 c0 -148 -3 -270 -6 -270 -3 0
-41 33 -85 73 l-78 72 -1 68 0 67 -50 0 -50 0 1 -117 1 -118 111 -102 c62 -55
150 -134 197 -174 l85 -73 3 322 2 322 70 0 70 0 0 575 0 575 -70 0 -70 0 0
-475z"/>
<path d="M3040 2255 l0 -575 70 0 70 0 0 575 0 575 -70 0 -70 0 0 -575z"/>
<path d="M3900 2300 c0 -291 2 -530 4 -530 9 0 209 247 313 387 l113 151 0
191 0 191 -70 0 -70 0 0 -168 0 -168 -72 -98 -73 -98 -3 336 -2 336 -70 0 -70
0 0 -530z"/>
<path d="M4190 2780 l0 -50 70 0 70 0 0 50 0 50 -70 0 -70 0 0 -50z"/>
<path d="M3250 2160 l0 -250 85 0 85 0 0 -219 0 -219 -67 -64 c-38 -36 -92
-86 -120 -113 l-53 -48 0 117 0 116 -70 0 -70 0 0 -266 0 -265 133 111 c72 62
187 162 254 223 l121 112 1 353 1 352 -80 0 -80 0 0 85 0 85 80 0 80 0 0 70 0
70 -150 0 -150 0 0 -250z"/>
<path d="M3710 2089 l0 -320 -40 -48 -40 -47 0 -100 0 -99 110 115 109 115 1
353 0 352 -70 0 -70 0 0 -321z"/>
<path d="M2590 2205 l0 -55 70 0 70 0 0 55 0 55 -70 0 -70 0 0 -55z"/>
</g>
</svg>
